REM DIRINDEX 1\6,1\2\7,1\2\8,1\2\9,1\3\10,1\3\11,1\4\12,1\4\13,1\4\14,1\5\15,1\5\16,1\5\17
REM DIRNAME folder01,folder02,folder03,folder04,folder05,folder06,folder07,folder08,folder09,folder10,folder11,folder12,folder13,folder14,folder15,folder16,folder17
TITLE ""
FILE "P2Q_t2_0072-0089.mp3" MP3
  TRACK 01 AUDIO
    TITLE "7:cjc040_4042"
    INDEX 01 00:00:00
  TRACK 02 AUDIO
    TITLE "0:"
    INDEX 01 00:01:19
  TRACK 03 AUDIO
    TITLE "8:cjc040_4043"
    INDEX 01 00:01:73
  TRACK 04 AUDIO
    TITLE "0:"
    INDEX 01 00:03:37
  TRACK 05 AUDIO
    TITLE "9:cjc040_4044"
    INDEX 01 00:04:19
  TRACK 06 AUDIO
    TITLE "0:"
    INDEX 01 00:05:42
  TRACK 07 AUDIO
    TITLE "7:cjc040_4045"
    INDEX 01 00:07:31
  TRACK 08 AUDIO
    TITLE "0:"
    INDEX 01 00:08:40
  TRACK 09 AUDIO
    TITLE "8:cjc040_4046"
    INDEX 01 00:09:18
  TRACK 10 AUDIO
    TITLE "0:"
    INDEX 01 00:10:61
  TRACK 11 AUDIO
    TITLE "9:cjc040_4047"
    INDEX 01 00:11:35
  TRACK 12 AUDIO
    TITLE "0:"
    INDEX 01 00:12:46
  TRACK 13 AUDIO
    TITLE "7:cjc040_4048"
    INDEX 01 00:14:29
  TRACK 14 AUDIO
    TITLE "0:"
    INDEX 01 00:15:40
  TRACK 15 AUDIO
    TITLE "8:cjc040_4049"
    INDEX 01 00:16:18
  TRACK 16 AUDIO
    TITLE "0:"
    INDEX 01 00:17:63
  TRACK 17 AUDIO
    TITLE "9:cjc040_4050"
    INDEX 01 00:18:42
  TRACK 18 AUDIO
    TITLE "0:"
    INDEX 01 00:19:46
  TRACK 19 AUDIO
    TITLE "7:cjc040_4051"
    INDEX 01 00:21:29
  TRACK 20 AUDIO
    TITLE "0:"
    INDEX 01 00:22:36
  TRACK 21 AUDIO
    TITLE "8:cjc040_4052"
    INDEX 01 00:23:24
  TRACK 22 AUDIO
    TITLE "0:"
    INDEX 01 00:24:49
  TRACK 23 AUDIO
    TITLE "9:cjc040_4053"
    INDEX 01 00:25:25
  TRACK 24 AUDIO
    TITLE "0:"
    INDEX 01 00:26:40
  TRACK 25 AUDIO
    TITLE "7:cjc040_4054"
    INDEX 01 00:28:21
  TRACK 26 AUDIO
    TITLE "0:"
    INDEX 01 00:29:42
  TRACK 27 AUDIO
    TITLE "8:cjc040_4055"
    INDEX 01 00:30:22
  TRACK 28 AUDIO
    TITLE "0:"
    INDEX 01 00:31:33
  TRACK 29 AUDIO
    TITLE "9:cjc040_4056"
    INDEX 01 00:32:15
  TRACK 30 AUDIO
    TITLE "0:"
    INDEX 01 00:33:34
  TRACK 31 AUDIO
    TITLE "7:cjc040_4057"
    INDEX 01 00:35:08
  TRACK 32 AUDIO
    TITLE "0:"
    INDEX 01 00:36:07
  TRACK 33 AUDIO
    TITLE "8:cjc040_4058"
    INDEX 01 00:36:62
  TRACK 34 AUDIO
    TITLE "0:"
    INDEX 01 00:39:58
  TRACK 35 AUDIO
    TITLE "9:cjc040_4059"
    INDEX 01 00:40:40
  TRACK 36 AUDIO
    TITLE "0:"
    INDEX 01 00:41:42
  TRACK 37 AUDIO
    TITLE "7:cjc040_4060"
    INDEX 01 00:43:29
  TRACK 38 AUDIO
    TITLE "0:"
    INDEX 01 00:44:40
  TRACK 39 AUDIO
    TITLE "8:cjc040_4061"
    INDEX 01 00:45:24
  TRACK 40 AUDIO
    TITLE "0:"
    INDEX 01 00:46:64
  TRACK 41 AUDIO
    TITLE "9:cjc040_4062"
    INDEX 01 00:47:46
  TRACK 42 AUDIO
    TITLE "0:"
    INDEX 01 00:48:59
  TRACK 43 AUDIO
    TITLE "7:cjc040_4063"
    INDEX 01 00:50:48
  TRACK 44 AUDIO
    TITLE "0:"
    INDEX 01 00:51:60
  TRACK 45 AUDIO
    TITLE "8:cjc040_4064"
    INDEX 01 00:52:45
  TRACK 46 AUDIO
    TITLE "0:"
    INDEX 01 00:56:67
  TRACK 47 AUDIO
    TITLE "9:cjc040_4065"
    INDEX 01 00:57:41
  TRACK 48 AUDIO
    TITLE "0:"
    INDEX 01 00:58:54
  TRACK 49 AUDIO
    TITLE "7:cjc040_4066"
    INDEX 01 01:00:41
  TRACK 50 AUDIO
    TITLE "0:"
    INDEX 01 01:01:48
  TRACK 51 AUDIO
    TITLE "8:cjc040_4067"
    INDEX 01 01:02:28
  TRACK 52 AUDIO
    TITLE "0:"
    INDEX 01 01:06:24
  TRACK 53 AUDIO
    TITLE "9:cjc040_4068"
    INDEX 01 01:07:08
  TRACK 54 AUDIO
    TITLE "0:"
    INDEX 01 01:08:19
  TRACK 55 AUDIO
    TITLE "7:cjc040_4069"
    INDEX 01 01:10:02
  TRACK 56 AUDIO
    TITLE "0:"
    INDEX 01 01:11:15
  TRACK 57 AUDIO
    TITLE "8:cjc040_4070"
    INDEX 01 01:11:72
  TRACK 58 AUDIO
    TITLE "0:"
    INDEX 01 01:13:24
  TRACK 59 AUDIO
    TITLE "9:cjc040_4071"
    INDEX 01 01:14:08
  TRACK 60 AUDIO
    TITLE "0:"
    INDEX 01 01:15:25
  TRACK 61 AUDIO
    TITLE "7:cjc040_4072"
    INDEX 01 01:17:14
  TRACK 62 AUDIO
    TITLE "0:"
    INDEX 01 01:18:25
  TRACK 63 AUDIO
    TITLE "8:cjc040_4073"
    INDEX 01 01:19:01
  TRACK 64 AUDIO
    TITLE "0:"
    INDEX 01 01:22:07
  TRACK 65 AUDIO
    TITLE "9:cjc040_4074"
    INDEX 01 01:22:62
  TRACK 66 AUDIO
    TITLE "0:"
    INDEX 01 01:24:00
  TRACK 67 AUDIO
    TITLE "7:cjc040_4075"
    INDEX 01 01:25:55
  TRACK 68 AUDIO
    TITLE "0:"
    INDEX 01 01:26:58
  TRACK 69 AUDIO
    TITLE "8:cjc040_4076"
    INDEX 01 01:27:44
  TRACK 70 AUDIO
    TITLE "0:"
    INDEX 01 01:30:46
  TRACK 71 AUDIO
    TITLE "9:cjc040_4077"
    INDEX 01 01:31:20
  TRACK 72 AUDIO
    TITLE "0:"
    INDEX 01 01:32:25
  TRACK 73 AUDIO
    TITLE "7:cjc040_4078"
    INDEX 01 01:34:05
  TRACK 74 AUDIO
    TITLE "0:"
    INDEX 01 01:35:10
  TRACK 75 AUDIO
    TITLE "8:cjc040_4079"
    INDEX 01 01:35:67
  TRACK 76 AUDIO
    TITLE "0:"
    INDEX 01 01:37:19
  TRACK 77 AUDIO
    TITLE "9:cjc040_4080"
    INDEX 01 01:37:68
  TRACK 78 AUDIO
    TITLE "0:"
    INDEX 01 01:38:69
  TRACK 79 AUDIO
    TITLE "7:cjc040_4081"
    INDEX 01 01:40:58
  TRACK 80 AUDIO
    TITLE "0:"
    INDEX 01 01:41:63
  TRACK 81 AUDIO
    TITLE "8:cjc040_4082"
    INDEX 01 01:42:41
  TRACK 82 AUDIO
    TITLE "0:"
    INDEX 01 01:45:34
  TRACK 83 AUDIO
    TITLE "9:cjc040_4083"
    INDEX 01 01:46:12
  TRACK 84 AUDIO
    TITLE "0:"
    INDEX 01 01:47:19
  TRACK 85 AUDIO
    TITLE "7:cjc040_4084"
    INDEX 01 01:49:02
  TRACK 86 AUDIO
    TITLE "0:"
    INDEX 01 01:50:09
  TRACK 87 AUDIO
    TITLE "8:cjc040_4085"
    INDEX 01 01:50:60
  TRACK 88 AUDIO
    TITLE "0:"
    INDEX 01 01:55:73
  TRACK 89 AUDIO
    TITLE "9:cjc040_4086"
    INDEX 01 01:56:53
  TRACK 90 AUDIO
    TITLE "0:"
    INDEX 01 01:57:62
  TRACK 91 AUDIO
    TITLE "7:cjc040_4087"
    INDEX 01 01:59:38
  TRACK 92 AUDIO
    TITLE "0:"
    INDEX 01 02:00:57
  TRACK 93 AUDIO
    TITLE "8:cjc040_4088"
    INDEX 01 02:01:45
  TRACK 94 AUDIO
    TITLE "0:"
    INDEX 01 02:04:51
  TRACK 95 AUDIO
    TITLE "9:cjc040_4089"
    INDEX 01 02:05:25
  TRACK 96 AUDIO
    TITLE "0:"
    INDEX 01 02:06:46
  TRACK 97 AUDIO
    TITLE "7:cjc040_4090"
    INDEX 01 02:08:33
  TRACK 98 AUDIO
    TITLE "0:"
    INDEX 01 02:09:52
  TRACK 99 AUDIO
    TITLE "8:cjc040_4091"
    INDEX 01 02:10:36
  TRACK 100 AUDIO
    TITLE "0:"
    INDEX 01 02:13:24
  TRACK 101 AUDIO
    TITLE "9:cjc040_4092"
    INDEX 01 02:14:08
  TRACK 102 AUDIO
    TITLE "0:"
    INDEX 01 02:15:25
  TRACK 103 AUDIO
    TITLE "7:cjc040_4093"
    INDEX 01 02:17:12
  TRACK 104 AUDIO
    TITLE "0:"
    INDEX 01 02:18:21
  TRACK 105 AUDIO
    TITLE "8:cjc040_4094"
    INDEX 01 02:19:05
  TRACK 106 AUDIO
    TITLE "0:"
    INDEX 01 02:20:16
  TRACK 107 AUDIO
    TITLE "9:cjc040_4095"
    INDEX 01 02:20:73
  TRACK 108 AUDIO
    TITLE "0:"
    INDEX 01 02:22:11
